<?xml version="1.0" encoding="UTF-8" standalone="no"?>
<!-- Generator: Adobe Illustrator 18.0.0, SVG Export Plug-In . SVG Version: 6.00 Build 0)  -->

<svg
   xmlns:dc="http://purl.org/dc/elements/1.1/"
   xmlns:cc="http://creativecommons.org/ns#"
   xmlns:rdf="http://www.w3.org/1999/02/22-rdf-syntax-ns#"
   xmlns:svg="http://www.w3.org/2000/svg"
   xmlns="http://www.w3.org/2000/svg"
   xmlns:xlink="http://www.w3.org/1999/xlink"
   xmlns:sodipodi="http://sodipodi.sourceforge.net/DTD/sodipodi-0.dtd"
   xmlns:inkscape="http://www.inkscape.org/namespaces/inkscape"
   version="1.1"
   id="Capa_1"
   x="0px"
   y="0px"
   viewBox="0 0 10.048321 10.048111"
   xml:space="preserve"
   sodipodi:docname="start.svg"
   inkscape:version="0.92.4 (5da689c313, 2019-01-14)"
   width="10.048321"
   height="10.048111"><metadata
   id="metadata39"><rdf:RDF><cc:Work
       rdf:about=""><dc:format>image/svg+xml</dc:format><dc:type
         rdf:resource="http://purl.org/dc/dcmitype/StillImage" /><dc:title /></cc:Work></rdf:RDF></metadata><defs
   id="defs37"><linearGradient
     inkscape:collect="always"
     id="linearGradient850"><stop
       style="stop-color:#8057bf;stop-opacity:1"
       offset="0"
       id="stop846" /><stop
       style="stop-color:#008080;stop-opacity:1"
       offset="1"
       id="stop848" /></linearGradient><linearGradient
     inkscape:collect="always"
     xlink:href="#linearGradient850"
     id="linearGradient852"
     x1="50.517208"
     y1="128.56296"
     x2="255.22739"
     y2="127.614"
     gradientUnits="userSpaceOnUse" /></defs><sodipodi:namedview
   pagecolor="#ffffff"
   bordercolor="#666666"
   borderopacity="1"
   objecttolerance="10"
   gridtolerance="10"
   guidetolerance="10"
   inkscape:pageopacity="0"
   inkscape:pageshadow="2"
   inkscape:window-width="1280"
   inkscape:window-height="977"
   id="namedview35"
   showgrid="false"
   inkscape:zoom="20.922745"
   inkscape:cx="2.3230329"
   inkscape:cy="3.4533324"
   inkscape:window-x="0"
   inkscape:window-y="0"
   inkscape:window-maximized="1"
   inkscape:current-layer="Capa_1" />
<g
   id="start-here-kde"
   transform="matrix(0.03937008,0,0,0.03937008,-1.4386793e-6,-1.1811024e-4)">   
<path
   d="M 232.593,55.115 C 213.228,27.07 184.101,8.246 150.578,2.11 142.942,0.712 135.165,0.003 127.464,0.003 65.922,0.003 13.198,44.009 2.099,104.639 -10.57,173.842 35.425,240.45 104.628,253.118 c 7.633,1.397 15.41,2.106 23.113,2.107 0.004,0 0.007,0 0.01,0 61.537,0 114.256,-44.004 125.355,-104.636 6.138,-33.524 -1.147,-67.431 -20.513,-95.474 z M 14.886,106.98 C 16.928,95.826 20.54,85.3 25.465,75.61 c 2.16,18.46 8.838,34.284 14.931,48.719 7.016,16.622 13.644,32.321 12.744,49.667 -0.625,12.035 -2.679,23.786 -6.079,35.068 C 21.091,183.307 7.817,145.596 14.886,106.98 Z m 112.856,135.245 c -6.921,0 -13.91,-0.638 -20.773,-1.894 -18.557,-3.397 -35.254,-11.115 -49.247,-21.922 4.79,-13.972 7.617,-28.66 8.4,-43.739 1.055,-20.325 -6.471,-38.154 -13.75,-55.396 -8.03,-19.022 -16.32,-38.678 -14.32,-63.204 21.146,-26.481 53.615,-43.067 89.411,-43.067 6.917,0 13.907,0.637 20.773,1.894 30.108,5.512 56.267,22.418 73.659,47.604 2.749,3.98 5.224,8.093 7.426,12.314 0.037,13.724 -20.255,26.056 -34.451,30.196 -65.718,19.168 -80.629,61.135 -81.565,92.964 -0.473,15.966 6.147,32.371 14.67,44.246 -0.076,0.001 -0.154,0.004 -0.233,0.004 z M 240.32,148.248 c -8.982,49.064 -48.304,85.998 -96.418,92.833 -9.221,-9.333 -18.079,-26.578 -17.601,-42.721 1.177,-40.028 25.473,-67.236 72.21,-80.868 13.485,-3.933 24.854,-10.535 32.877,-19.092 1.965,-2.096 3.681,-4.281 5.141,-6.51 5.921,17.967 7.292,37.23 3.791,56.358 z"
   id="path2"
   style="fill:url(#linearGradient852);fill-opacity:1"
   inkscape:connector-curvature="0" />
<g
   id="g4">
</g>
<g
   id="g6">
</g>
<g
   id="g8">
</g>
<g
   id="g10">
</g>
<g
   id="g12">
</g>
<g
   id="g14">
</g>
<g
   id="g16">
</g>
<g
   id="g18">
</g>
<g
   id="g20">
</g>
<g
   id="g22">
</g>
<g
   id="g24">
</g>
<g
   id="g26">
</g>
<g
   id="g28">
</g>
<g
   id="g30">
</g>
<g
   id="g32">
</g>
</g>
</svg>